P3
20 20
255
255 0 0
100 150 175
100 150 175
100 150 175
100 150 175
100 150 175
100 150 175
100 150 175
100 150 175
100 150 175
100 150 175
100 150 175
100 150 175
100 150 175
100 150 175
100 150 175
100 150 175
100 150 175
100 150 175
100 150 175
100 150 175
255 0 0
100 150 175
100 150 175
100 150 175
100 150 175
100 150 175
100 150 175
100 150 175
100 150 175
100 150 175
100 150 175
100 150 175
100 150 175
100 150 175
100 150 175
100 150 175
100 150 175
100 150 175
100 150 175
100 150 175
100 150 175
255 0 0
100 150 175
100 150 175
100 150 175
100 150 175
100 150 175
100 150 175
100 150 175
100 150 175
100 150 175
100 150 175
100 150 175
100 150 175
100 150 175
100 150 175
100 150 175
100 150 175
100 150 175
100 150 175
100 150 175
100 150 175
255 0 0
100 150 175
100 150 175
100 150 175
100 150 175
100 150 175
100 150 175
100 150 175
100 150 175
100 150 175
100 150 175
100 150 175
100 150 175
100 150 175
100 150 175
100 150 175
100 150 175
100 150 175
100 150 175
100 150 175
100 150 175
255 0 0
100 150 175
100 150 175
100 150 175
100 150 175
100 150 175
100 150 175
100 150 175
100 150 175
100 150 175
100 150 175
100 150 175
100 150 175
100 150 175
100 150 175
100 150 175
100 150 175
100 150 175
100 150 175
100 150 175
100 150 175
255 0 0
100 150 175
100 150 175
100 150 175
100 150 175
100 150 175
100 150 175
100 150 175
100 150 175
100 150 175
100 150 175
100 150 175
100 150 175
100 150 175
100 150 175
100 150 175
100 150 175
100 150 175
100 150 175
100 150 175
100 150 175
255 0 0
100 150 175
100 150 175
100 150 175
100 150 175
100 150 175
100 150 175
100 150 175
100 150 175
100 150 175
100 150 175
100 150 175
100 150 175
100 150 175
100 150 175
100 150 175
100 150 175
100 150 175
100 150 175
100 150 175
100 150 175
255 0 0
100 150 175
100 150 175
100 150 175
100 150 175
100 150 175
100 150 175
100 150 175
100 150 175
100 150 175
100 150 175
100 150 175
100 150 175
100 150 175
100 150 175
100 150 175
100 150 175
100 150 175
100 150 175
100 150 175
100 150 175
255 0 0
100 150 175
100 150 175
100 150 175
100 150 175
100 150 175
100 150 175
100 150 175
100 150 175
100 150 175
100 150 175
100 150 175
100 150 175
100 150 175
100 150 175
100 150 175
100 150 175
100 150 175
100 150 175
100 150 175
100 150 175
255 0 0
100 150 175
100 150 175
100 150 175
100 150 175
100 150 175
100 150 175
100 150 175
100 150 175
100 150 175
100 150 175
100 150 175
100 150 175
100 150 175
100 150 175
100 150 175
100 150 175
100 150 175
100 150 175
100 150 175
100 150 175
255 0 0
100 150 175
100 150 175
100 150 175
100 150 175
100 150 175
100 150 175
100 150 175
100 150 175
100 150 175
100 150 175
100 150 175
100 150 175
100 150 175
100 150 175
100 150 175
100 150 175
100 150 175
100 150 175
100 150 175
100 150 175
255 0 0
100 150 175
100 150 175
100 150 175
100 150 175
100 150 175
100 150 175
100 150 175
100 150 175
100 150 175
100 150 175
100 150 175
100 150 175
100 150 175
100 150 175
100 150 175
100 150 175
100 150 175
100 150 175
100 150 175
100 150 175
255 0 0
100 150 175
100 150 175
100 150 175
100 150 175
100 150 175
100 150 175
100 150 175
100 150 175
100 150 175
100 150 175
100 150 175
100 150 175
100 150 175
100 150 175
100 150 175
100 150 175
100 150 175
100 150 175
100 150 175
100 150 175
255 0 0
100 150 175
100 150 175
100 150 175
100 150 175
100 150 175
100 150 175
100 150 175
100 150 175
100 150 175
100 150 175
100 150 175
100 150 175
100 150 175
100 150 175
100 150 175
100 150 175
100 150 175
100 150 175
100 150 175
100 150 175
255 0 0
100 150 175
100 150 175
100 150 175
100 150 175
100 150 175
100 150 175
100 150 175
100 150 175
100 150 175
100 150 175
100 150 175
100 150 175
100 150 175
100 150 175
100 150 175
100 150 175
100 150 175
100 150 175
100 150 175
100 150 175
255 0 0
100 150 175
100 150 175
100 150 175
100 150 175
100 150 175
100 150 175
100 150 175
100 150 175
100 150 175
100 150 175
100 150 175
100 150 175
100 150 175
100 150 175
100 150 175
100 150 175
100 150 175
100 150 175
100 150 175
100 150 175
255 0 0
100 150 175
100 150 175
100 150 175
100 150 175
100 150 175
100 150 175
100 150 175
100 150 175
100 150 175
100 150 175
100 150 175
100 150 175
100 150 175
100 150 175
100 150 175
100 150 175
100 150 175
100 150 175
100 150 175
100 150 175
255 0 0
100 150 175
100 150 175
100 150 175
100 150 175
100 150 175
100 150 175
100 150 175
100 150 175
100 150 175
100 150 175
100 150 175
100 150 175
100 150 175
100 150 175
100 150 175
100 150 175
100 150 175
100 150 175
100 150 175
100 150 175
255 0 0
100 150 175
100 150 175
100 150 175
100 150 175
100 150 175
100 150 175
100 150 175
100 150 175
100 150 175
100 150 175
100 150 175
100 150 175
100 150 175
100 150 175
100 150 175
100 150 175
100 150 175
100 150 175
100 150 175
100 150 175
255 0 0
