P3
5 5
255
255 0 0
100 150 175
100 150 175
100 150 175
100 150 175
100 150 175
255 0 0
100 150 175
100 150 175
100 150 175
100 150 175
100 150 175
255 0 0
100 150 175
100 150 175
100 150 175
100 150 175
100 150 175
255 0 0
100 150 175
100 150 175
100 150 175
100 150 175
100 150 175
255 0 0
